#!OML:ASF E:\Steps\Project 1\Capture day 1\Session 2\Subject.ASF
:FULLY-SPECIFIED
:DEGREES
204
root 17.195 16.54 22.3157 -157.823 -10.064 173.784
lowerback -18.5812 -0.558905 -7.18279
upperback 2.61922 1.02228 -1.25668
thorax 13.3795 -0.0494646 2.96852
lowerneck -2.89298 0.0135588 -2.73919
upperneck 20.7575 -2.22917 5.70918
head 6.86674 -1.3523 2.09477
rclavicle 1.58034e-014 1.74931e-014
rhumerus -33.3153 -15.404 -78.3657
rradius 34.2878
rwrist -1.3828
rhand -10.0633 -413.909
rfingers 7.12502
rthumb -164.077 96.7256
lclavicle 1.58034e-014 1.74931e-014
lhumerus -28.1113 4.34759 80.6448
lradius 20.1349
lwrist -5.01314
lhand -22.9306 -14.0524
lfingers 7.12502
lthumb 3.51013 15.8984
rfemur -22.4853 4.26803 17.9351
rtibia 9.60535
rfoot -18.1183 -8.66745
rtoes -4.424
lfemur -72.192 -5.95621 -18.9893
ltibia 90.003
lfoot -19.0582 7.32052
ltoes -44.9162
205
root 17.1907 16.5416 22.3123 -157.655 -10.012 173.462
lowerback -18.6816 -0.578699 -7.43985
upperback 2.61265 1.06967 -1.34709
thorax 13.4263 -0.0476108 3.02627
lowerneck -2.82887 0.106598 -2.68892
upperneck 20.7982 -2.10659 5.66755
head 6.86212 -1.29613 2.08133
rclavicle -1.98785e-015 1.15295e-014
rhumerus -33.4242 -15.3226 -78.4392
rradius 34.6145
rwrist -1.49593
rhand -10.386 -413.387
rfingers 7.12502
rthumb -164.388 97.2227
lclavicle -1.98785e-015 1.15295e-014
lhumerus -28.1172 4.49127 80.5104
lradius 19.9295
lwrist -5.12492
lhand -23.1736 -13.9179
lfingers 7.12502
lthumb 3.27544 16.0367
rfemur -22.6124 4.30116 17.549
rtibia 9.70345
rfoot -18.1455 -8.90044
rtoes -5.35415
lfemur -73.0186 -5.73304 -18.911
ltibia 90.1975
lfoot -19.211 7.44433
ltoes -44.4396
206
root 17.1794 16.5423 22.3067 -157.582 -10.0921 173.34
lowerback -18.7722 -0.580566 -7.35848
upperback 2.63309 1.06262 -1.39339
thorax 13.5063 -0.046236 2.92646
lowerneck -2.87635 0.237698 -2.70373
upperneck 21.0274 -1.99901 5.84328
head 6.94055 -1.23964 2.14869
rclavicle 6.01324e-015 5.36719e-015
rhumerus -33.4213 -15.2832 -78.4771
rradius 34.8037
rwrist -1.6823
rhand -11.2528 -411.756
rfingers 7.12502
rthumb -165.223 98.791
lclavicle 6.01324e-015 5.36719e-015
lhumerus -28.1482 4.59515 80.3629
lradius 19.7674
lwrist -5.26852
lhand -23.2871 -13.7055
lfingers 7.12502
lthumb 3.16588 16.2507
rfemur -22.6008 4.2815 17.3955
rtibia 9.70325
rfoot -18.1715 -9.0306
rtoes -5.28702
lfemur -73.3527 -5.67911 -18.5795
ltibia 89.7242
lfoot -19.2214 7.67273
ltoes -45.2737
207
root 17.1694 16.5445 22.3013 -157.601 -10.3272 173.257
lowerback -18.7252 -0.619862 -7.23247
upperback 2.66063 0.979225 -1.39138
thorax 13.5205 -0.0751009 2.83219
lowerneck -2.80147 0.235276 -2.90678
upperneck 20.996 -2.02417 6.03878
head 6.92026 -1.25481 2.24518
rclavicle -1.635e-014 -7.95139e-015
rhumerus -33.4715 -15.1276 -78.5269
rradius 35.0486
rwrist -1.96562
rhand -11.1046 -412.638
rfingers 7.12502
rthumb -165.08 97.9195
lclavicle -1.635e-014 -7.95139e-015
lhumerus -28.1824 5.04291 80.1404
lradius 19.6198
lwrist -5.77946
lhand -22.9355 -13.6585
lfingers 7.12502
lthumb 3.50542 16.2924
rfemur -22.4615 4.22627 17.3091
rtibia 9.64277
rfoot -18.2224 -9.20265
rtoes -4.79952
lfemur -73.8831 -5.61798 -18.2084
ltibia 89.5349
lfoot -19.0786 7.35728
ltoes -44.4195
208
root 17.1632 16.5536 22.2935 -157.92 -10.6754 173.165
lowerback -18.3127 -0.701706 -7.17554
upperback 2.80778 0.827334 -1.34852
thorax 13.464 -0.140826 2.79993
lowerneck -2.83716 0.102325 -2.93359
upperneck 20.9605 -2.18784 5.99028
head 6.92329 -1.3358 2.2227
rclavicle -4.07509e-015 2.40529e-014
rhumerus -33.4719 -14.8492 -78.6518
rradius 35.3971
rwrist -2.13859
rhand -11.1924 -412.633
rfingers 7.12502
rthumb -165.165 97.918
lclavicle -4.07509e-015 2.40529e-014
lhumerus -28.1186 5.33271 80.0769
lradius 19.5464
lwrist -6.30988
lhand -23.2201 -13.0181
lfingers 7.12502
lthumb 3.23052 16.9372
rfemur -21.8761 4.09507 17.2715
rtibia 9.41315
rfoot -18.1908 -9.49228
rtoes -4.71631
lfemur -73.9256 -5.74176 -17.815
ltibia 89.1317
lfoot -18.8562 6.97202
ltoes -43.2753
209
root 17.1597 16.559 22.2812 -158.197 -10.9272 173.126
lowerback -18.0176 -0.784567 -7.15774
upperback 2.91992 0.689248 -1.29456
thorax 13.434 -0.204923 2.80816
lowerneck -2.73685 -0.0171567 -2.74534
upperneck 20.9015 -2.30186 5.65262
head 6.88863 -1.40318 2.07321
rclavicle 2.39536e-014 -2.08724e-014
rhumerus -33.4227 -14.7157 -78.6759
rradius 35.5189
rwrist -1.97075
rhand -11.6006 -410.817
rfingers 7.12502
rthumb -165.558 99.7056
lclavicle 2.39536e-014 -2.08724e-014
lhumerus -28.0915 5.52013 79.933
lradius 19.3802
lwrist -6.56175
lhand -23.0726 -12.9311
lfingers 7.12502
lthumb 3.37301 17.022
rfemur -21.3477 4.32922 17.234
rtibia 9.1993
rfoot -18.2054 -9.98644
rtoes -4.75616
lfemur -73.9982 -5.71947 -17.4426
ltibia 88.673
lfoot -18.5759 7.31831
ltoes -44.7379
210
root 17.1503 16.5639 22.2674 -158.237 -10.9586 172.861
lowerback -18.0117 -0.828457 -7.31828
upperback 2.99729 0.67547 -1.35444
thorax 13.5238 -0.227019 2.82628
lowerneck -2.57641 -0.0341497 -2.63426
upperneck 20.7495 -2.30172 5.54978
head 6.80972 -1.40356 2.02118
rclavicle -2.54444e-014 4.17448e-015
rhumerus -33.3207 -14.674 -78.6951
rradius 35.6081
rwrist -1.9236
rhand -10.5579 -411.715
rfingers 7.12502
rthumb -164.554 98.8826
lclavicle -2.54444e-014 4.17448e-015
lhumerus -28.0608 5.56377 79.7776
lradius 19.217
lwrist -6.68946
lhand -22.6463 -13.5561
lfingers 7.12502
lthumb 3.78463 16.39
rfemur -21.1501 4.42465 16.8901
rtibia 9.19245
rfoot -18.2683 -10.1647
rtoes -4.71107
lfemur -74.2208 -5.67784 -17.359
ltibia 88.1195
lfoot -18.3474 7.75873
ltoes -46.2228
211
root 17.1376 16.5687 22.2567 -158.13 -10.9416 172.579
lowerback -18.1514 -0.838527 -7.45341
upperback 3.03623 0.714557 -1.43807
thorax 13.6501 -0.222912 2.81933
lowerneck -2.35948 0.038284 -2.66201
upperneck 20.5607 -2.21642 5.71265
head 6.70794 -1.35552 2.0845
rclavicle -9.0944e-015 -4.77083e-015
rhumerus -33.2732 -14.7559 -78.7119
rradius 35.6811
rwrist -2.06586
rhand -10.6195 -411.461
rfingers 7.12502
rthumb -164.613 99.1321
lclavicle -9.0944e-015 -4.77083e-015
lhumerus -28.0245 5.69072 79.6506
lradius 19.1836
lwrist -6.51198
lhand -22.235 -13.9093
lfingers 7.12502
lthumb 4.18188 16.0294
rfemur -21.1868 4.23172 16.5355
rtibia 9.27503
rfoot -18.3065 -10.0917
rtoes -4.52914
lfemur -74.577 -5.63886 -17.2723
ltibia 87.521
lfoot -18.1983 7.85677
ltoes -46.6005
212
root 17.1275 16.5716 22.252 -158.02 -10.9673 172.505
lowerback -18.1991 -0.836133 -7.4168
upperback 3.01568 0.713608 -1.44928
thorax 13.6546 -0.219784 2.78605
lowerneck -2.36128 0.247206 -2.66187
upperneck 20.7481 -1.9665 5.75863
head 6.75694 -1.23805 2.11613
rclavicle -1.60022e-014 1.23246e-014
rhumerus -33.2524 -14.7877 -78.7691
rradius 35.7142
rwrist -2.46731
rhand -10.094 -414.027
rfingers 7.12502
rthumb -164.107 96.6051
lclavicle -1.60022e-014 1.23246e-014
lhumerus -28.0921 5.5025 79.7123
lradius 19.2162
lwrist -6.36424
lhand -22.6492 -13.7534
lfingers 7.12502
lthumb 3.78183 16.1927
rfemur -21.3316 4.1939 16.3995
rtibia 9.39052
rfoot -18.4011 -10.1164
rtoes -4.35068
lfemur -74.9226 -5.3943 -16.9863
ltibia 86.7926
lfoot -17.963 7.75533
ltoes -46.4867
213
root 17.1164 16.5714 22.2453 -158.053 -11.0258 172.675
lowerback -18.1264 -0.797923 -7.11272
upperback 3.0067 0.685425 -1.39206
thorax 13.6026 -0.207047 2.67092
lowerneck -2.34939 0.317308 -2.66118
upperneck 20.7472 -1.85834 5.71615
head 6.74918 -1.1887 2.10941
rclavicle -2.32578e-014 -5.46658e-014
rhumerus -33.1685 -14.8918 -78.7155
rradius 35.6821
rwrist -2.12378
rhand -9.69771 -414.112
rfingers 7.12502
rthumb -163.725 96.5509
lclavicle -2.32578e-014 -5.46658e-014
lhumerus -28.1081 5.35124 79.7299
lradius 19.245
lwrist -5.96008
lhand -22.5956 -13.6587
lfingers 7.12502
lthumb 3.83367 16.2866
rfemur -21.3544 4.26234 16.5312
rtibia 9.46924
rfoot -18.4436 -10.16
rtoes -3.97323
lfemur -75.1452 -5.0696 -16.4559
ltibia 86.0302
lfoot -17.8806 7.46506
ltoes -45.3788
214
root 17.1084 16.5761 22.2355 -158.02 -10.9974 172.34
lowerback -18.0369 -0.871053 -7.37925
upperback 3.02012 0.643113 -1.44853
thorax 13.5704 -0.246118 2.7444
lowerneck -2.43241 0.34404 -2.67591
upperneck 20.8279 -1.81602 5.66783
head 6.78765 -1.17196 2.09925
rclavicle 1.32192e-014 3.18055e-015
rhumerus -33.0316 -14.9202 -78.7105
rradius 35.4642
rwrist -1.96833
rhand -10.3201 -412.775
rfingers 7.12502
rthumb -164.325 97.84
lclavicle 1.32192e-014 3.18055e-015
lhumerus -28.0849 5.27218 79.7156
lradius 19.2143
lwrist -5.76861
lhand -22.6097 -13.8382
lfingers 7.12502
lthumb 3.82003 16.1073
rfemur -21.2952 4.2629 16.0857
rtibia 9.48885
rfoot -18.4495 -10.3021
rtoes -4.12343
lfemur -75.2256 -4.99546 -16.4418
ltibia 85.1925
lfoot -17.9448 7.17236
ltoes -44.2607
215
root 17.1021 16.578 22.2284 -158.32 -11.3827 172.305
lowerback -17.6135 -0.960609 -7.28449
upperback 3.10688 0.464229 -1.39872
thorax 13.4376 -0.318875 2.69367
lowerneck -2.48116 0.0944799 -2.80644
upperneck 20.9333 -2.20307 5.80019
head 6.85013 -1.36223 2.13876
rclavicle -1.67973e-014 2.78299e-015
rhumerus -32.9679 -14.9041 -78.775
rradius 35.3734
rwrist -1.82741
rhand -11.0706 -412.359
rfingers 7.12502
rthumb -165.047 98.2006
lclavicle -1.67973e-014 2.78299e-015
lhumerus -28.0957 5.20415 79.7156
lradius 19.2332
lwrist -5.90122
lhand -23.0039 -13.9125
lfingers 7.12502
lthumb 3.43935 16.0395
rfemur -20.7478 4.44535 16.1017
rtibia 9.35324
rfoot -18.6104 -10.6779
rtoes -4.00301
lfemur -75.1003 -5.13595 -16.0446
ltibia 84.3466
lfoot -17.8532 7.15499
ltoes -44.6123
216
root 17.0878 16.5852 22.212 -158.258 -11.4089 171.7
lowerback -17.6205 -1.03835 -7.77261
upperback 3.13813 0.478948 -1.54393
thorax 13.4809 -0.350468 2.80813
lowerneck -2.31984 -0.0182208 -2.77081
upperneck 20.8919 -2.37203 5.78799
head 6.81617 -1.44802 2.11772
rclavicle 8.94531e-016 1.88845e-014
rhumerus -33.0626 -15.0275 -78.7285
rradius 35.4552
rwrist -1.89961
rhand -11.3409 -411.123
rfingers 7.12502
rthumb -165.308 99.4173
lclavicle 8.94531e-016 1.88845e-014
lhumerus -28.1245 5.16693 79.7054
lradius 19.3345
lwrist -6.00712
lhand -23.1753 -13.6793
lfingers 7.12502
lthumb 3.27378 16.2753
rfemur -20.6161 4.74606 15.3026
rtibia 9.49845
rfoot -18.9411 -11.0735
rtoes -3.2569
lfemur -74.9561 -5.34457 -16.3191
ltibia 83.173
lfoot -17.6777 7.21145
ltoes -45.1262
217
root 17.0696 16.5898 22.1945 -158.375 -11.5618 171.559
lowerback -17.5362 -1.04753 -7.70867
upperback 3.17093 0.448579 -1.56926
thorax 13.4722 -0.358624 2.73427
lowerneck -2.10282 -0.0417278 -2.77499
upperneck 20.8576 -2.42078 5.79133
head 6.76916 -1.48043 2.11684
rclavicle 1.60022e-014 1.66979e-014
rhumerus -33.2198 -15.0335 -78.6912
rradius 35.5644
rwrist -1.94833
rhand -11.7542 -411.368
rfingers 7.12502
rthumb -165.706 99.1436
lclavicle 1.60022e-014 1.66979e-014
lhumerus -28.2419 5.17085 79.6653
lradius 19.5013
lwrist -6.07489
lhand -22.9084 -13.5762
lfingers 7.12502
lthumb 3.53159 16.3743
rfemur -20.457 4.83802 15.1332
rtibia 9.78177
rfoot -19.221 -11.3923
rtoes -3.56856
lfemur -74.7828 -5.46596 -16.0958
ltibia 82.0983
lfoot -17.5754 7.19743
ltoes -45.6785
